<svg width="1921" height="89" viewBox="0 0 1921 89" fill="none" xmlns="http://www.w3.org/2000/svg">
<g id="ripped-paper-wide">
<path id="mask" d="M1920.25 34.2451C1910.58 34.7451 1890.94 36.0452 1889.73 37.2451C1888.4 35.4117 1884.83 32.7453 1881.23 36.7451C1877.63 40.7453 1868.39 38.7452 1864.22 37.2451H1863.47L1843.26 40.2314C1844.21 41.2802 1845.38 46.831 1846.21 47.2461L1848.21 48.2461C1846.04 50.4127 1841.21 54.7457 1839.21 54.7461C1836.71 54.7461 1787.68 42.7457 1800.19 59.2461V60.7461H1793.68C1786.34 57.4126 1769.27 51.746 1759.66 55.7461L1710.14 55.2461C1699.97 53.746 1677.62 49.9462 1669.62 46.7461C1669.12 47.4128 1667.92 48.746 1667.12 48.7461C1666.12 48.7461 1660.61 39.2452 1660.61 38.2451C1660.61 37.2453 1647.61 36.2456 1642.1 38.2451C1636.6 40.2452 1617.09 53.2461 1599.58 53.2461C1594.58 56.7462 1579.97 62.5462 1561.56 57.7461C1543.15 52.946 1524.21 58.0793 1517.04 61.2461C1515.7 60.7461 1511.24 60.0461 1504.03 61.2461C1495.03 62.7461 1485.02 67.2471 1476.02 62.2471C1467.01 68.414 1447 79.8472 1439 76.2471C1428.99 71.747 1424.99 71.2472 1418.49 62.2471C1417.65 62.9138 1415.38 64.147 1412.98 63.7471C1409.98 63.2465 1400.48 54.7461 1397.98 54.7461C1395.97 54.7458 1389.81 52.4128 1386.97 51.2461C1384.8 50.5794 1379.37 50.1459 1374.96 53.7461C1369.46 58.2463 1353.45 70.7468 1339.45 54.7461C1329.44 52.4127 1304.83 49.146 1286.42 54.7461C1263.41 61.7464 1241.89 60.747 1240.39 62.2471C1238.89 63.7458 1232.89 58.7462 1227.39 60.2461C1221.88 61.7462 1191.87 64.2462 1187.37 58.7461C1176.36 59.5794 1153.25 60.846 1148.85 59.2461C1143.34 57.246 1133.84 46.7462 1127.34 43.7461C1120.83 40.746 1106.32 37.7452 1103.32 35.2451C1100.32 32.7446 1096.32 23.2455 1081.31 30.7451C1080.81 30.7451 1076.31 22.2451 1068.81 25.7451C1061.3 29.2451 1062.3 27.7453 1061.3 27.7451C1060.3 27.7451 1038.29 19.7449 1012.78 24.2451C1010.61 25.5785 1006.27 28.745 1006.27 30.7451C1005.27 30.0784 1002.47 28.8452 999.269 29.2451C996.068 29.6451 991.599 32.4116 989.764 33.7451C983.094 32.9118 967.753 31.9452 959.749 34.7451C949.743 38.2452 955.746 29.745 927.732 36.2451C899.717 42.7454 907.721 41.7453 896.215 37.7451C881.875 39.2452 850.492 41.3452 839.686 37.7451C831.515 39.9119 813.172 43.8462 805.167 42.2461C795.162 40.246 788.659 37.7451 788.159 37.7451C787.658 37.7473 784.656 46.7457 778.154 44.7461C771.65 42.746 762.645 25.7464 752.64 30.7461C750.806 26.7458 739.034 22.8454 706.617 39.2461C701.281 40.8064 688.807 41.7899 681.603 33.2451C675.933 35.5785 659.592 38.9453 639.582 33.7451C614.569 35.2452 613.067 22.2448 597.059 30.2451C593.057 26.0783 580.951 20.245 564.542 30.2451C557.872 30.2448 541.03 32.2445 527.023 40.2451C527.023 40.1971 526.964 40.0867 526.865 39.9219L534.38 60.5908C534.675 60.5662 534.889 60.6073 535.027 60.7451C535.827 61.5451 541.364 66.0783 544.032 68.2451C533.226 76.2454 495.84 71.5786 478.498 68.2451C469.293 74.2454 445.981 76.7461 435.475 77.2461C421.868 68.0457 402.458 77.4125 394.454 83.2461C390.051 73.2457 380.279 78.0793 375.944 81.7461C367.14 88.5457 363.271 81.5796 362.437 77.2461C358.035 82.8456 353.933 81.5794 352.432 80.2461C335.424 71.7459 329.42 68.2453 326.418 70.2451C323.417 72.2452 320.915 71.7451 319.415 71.7451C318.214 71.7449 315.58 69.4118 314.413 68.2451C313.579 68.0784 311.711 68.5453 310.911 71.7451C310.11 74.9452 303.573 83.0793 300.405 86.7461C292.401 93.5463 283.396 81.912 279.894 75.2451L270.889 80.2461C260.885 86.6455 255.716 87.2458 254.381 86.7461C249.979 87.1461 242.875 79.2453 239.874 75.2451C233.37 83.7455 221.364 90.2457 213.86 75.2451C206.356 60.2451 186.345 75.2451 184.344 75.2451C177.14 80.0453 173.672 77.2452 172.838 75.2451C156.83 58.8447 148.492 57.7451 146.325 59.2451C129.116 63.2451 126.815 57.5786 127.815 54.2451L114.808 51.7441C112.407 52.9442 102.135 53.9118 97.2993 54.2451C88.895 43.0448 67.4507 45.2441 57.7788 47.7441C43.7715 60.1447 27.5959 50.9111 21.2593 44.7441L0.248535 43.2441V0H1920.25V34.2451ZM1835.17 41.4277C1835.67 41.5315 1836.19 41.6375 1836.7 41.7461C1838.34 41.7461 1841.75 41.4571 1842.65 40.3213L1835.17 41.4277Z" fill="#EEEEEE"/>
<g id="outer-edge">
<path d="M21.2595 44.7016L0.248535 43.2016V30.7027L21.2595 31.2027C26.7623 39.2027 41.2699 41.2027 46.2725 41.2027C51.2751 41.2027 56.778 35.2027 58.2788 34.2027C59.7795 33.2027 78.7894 33.2027 86.2934 34.2027C93.7973 35.2027 96.2986 41.7027 97.2991 41.7027C98.2996 41.7027 112.807 39.7016 115.809 39.2016C118.21 38.8016 124.813 41.3682 127.815 42.7016C130.216 50.3016 136.486 49.5349 139.321 48.2016C157.33 44.7016 160.832 49.7016 167.836 58.7016C174.839 67.7016 178.842 66.2016 179.342 66.2016C186.546 61.8016 197.351 58.3682 201.854 57.2016C214.86 55.7016 214.86 73.2016 227.367 74.7016C231.136 75.1537 237.539 68.8683 240.374 65.2016C240.874 68.7016 253.38 80.2016 259.884 76.2016C265.086 73.0016 275.392 67.8683 279.894 65.7016C282.395 73.7016 290.4 78.7016 294.402 78.7016C298.404 78.7016 307.409 70.2016 307.409 67.2016C307.409 64.2016 314.412 56.2016 314.412 57.7016C314.412 58.9016 319.415 60.2016 321.916 60.7016C321.916 61.2016 323.517 61.6016 329.92 59.2016C335.923 58.2016 349.931 70.2016 353.933 70.2016C357.134 70.2016 360.269 68.2016 361.437 67.2016C366.639 76.0016 370.942 74.5349 372.442 72.7016C373.109 71.5349 376.344 68.5016 383.948 65.7016C393.453 62.2016 391.953 74.7016 394.454 72.7016C396.955 70.7016 408.461 65.2016 417.466 62.2016C426.471 59.2016 432.974 65.7016 444.98 67.2016C456.986 68.7016 470.994 58.7016 479.998 56.2016C489.003 53.7016 507.012 60.7016 518.018 62.2016C529.024 63.7016 534.027 59.7016 535.027 60.7016C535.827 61.5016 541.364 66.0349 544.032 68.2016C533.226 76.2016 495.84 71.5349 478.498 68.2016C469.293 74.2016 445.981 76.7016 435.475 77.2016C421.868 68.0016 402.458 77.3682 394.454 83.2016C390.052 73.2016 380.28 78.0349 375.944 81.7016C367.14 88.5016 363.271 81.5349 362.437 77.2016C358.035 82.8016 353.933 81.5349 352.432 80.2016C335.423 71.7016 329.42 68.2016 326.418 70.2016C323.417 72.2016 320.916 71.7016 319.415 71.7016C318.214 71.7016 315.579 69.3683 314.412 68.2016C313.578 68.0349 311.711 68.5016 310.91 71.7016C310.11 74.9016 303.573 83.0349 300.405 86.7016C292.401 93.5016 283.396 81.8682 279.894 75.2016L270.889 80.2016C260.884 86.6016 255.715 87.2016 254.381 86.7016C249.979 87.1016 242.875 79.2016 239.873 75.2016C233.37 83.7016 221.364 90.2016 213.86 75.2016C206.356 60.2016 186.345 75.2016 184.344 75.2016C177.141 80.0016 173.672 77.2016 172.838 75.2016C156.83 58.8016 148.492 57.7016 146.325 59.2016C129.116 63.2016 126.814 57.5349 127.815 54.2016L114.808 51.7016C112.407 52.9016 102.135 53.8683 97.2991 54.2016C88.8947 43.0016 67.4502 45.2016 57.7785 47.7016C43.7712 60.1016 27.5961 50.8682 21.2595 44.7016Z" fill="white"/>
<path d="M521.52 31.2027C521.02 32.2027 527.023 39.7027 527.023 40.2027C541.03 32.2024 557.872 30.2028 564.542 30.2031C580.951 20.2031 593.057 26.0365 597.059 30.2031C613.068 22.2031 614.568 35.2031 639.581 33.7031C659.592 38.9031 675.934 35.5365 681.603 33.2031C688.807 41.7476 701.28 40.7633 706.616 39.2031C739.033 22.8031 750.806 26.7035 752.64 30.7037C762.646 25.7042 771.65 42.7031 778.154 44.7031C784.657 46.7031 787.659 37.7031 788.159 37.7031C788.659 37.7031 795.163 40.2031 805.168 42.2031C813.172 43.8031 831.515 39.8698 839.686 37.7031C850.491 41.3031 881.874 39.2031 896.215 37.7031C907.721 41.7031 899.717 42.7031 927.732 36.2031C955.746 29.7031 949.743 38.2031 959.748 34.7031C967.752 31.9031 983.094 32.8698 989.764 33.7031C991.598 32.3698 996.067 29.6031 999.269 29.2031C1002.47 28.8031 1005.27 30.0365 1006.27 30.7031C1006.27 28.7031 1010.61 25.5365 1012.78 24.2031C1038.29 19.7031 1060.3 27.7031 1061.3 27.7031C1062.3 27.7031 1061.3 29.2031 1068.81 25.7031C1076.31 22.2031 1080.81 30.7031 1081.31 30.7031C1096.32 23.2031 1100.32 32.7031 1103.32 35.2031C1106.32 37.7031 1120.83 40.7031 1127.34 43.7031C1133.84 46.7031 1143.34 57.2031 1148.85 59.2031C1153.25 60.8031 1176.36 59.5365 1187.37 58.7031C1191.87 64.2031 1221.88 61.7031 1227.39 60.2031C1232.89 58.7031 1238.89 63.7031 1240.39 62.2031C1241.9 60.7031 1263.41 61.7031 1286.42 54.7031C1304.83 49.1031 1329.44 52.3698 1339.45 54.7031C1353.45 70.7031 1369.46 58.2031 1374.96 53.7031C1379.37 50.1031 1384.8 50.5365 1386.97 51.2031C1389.81 52.3698 1395.98 54.7031 1397.98 54.7031C1400.48 54.7031 1409.98 63.2031 1412.98 63.7031C1415.39 64.1031 1417.65 62.8698 1418.49 62.2031C1424.99 71.2031 1428.99 71.7031 1439 76.2031C1447 79.8031 1467.01 68.3698 1476.02 62.2031C1485.02 67.2031 1495.03 62.7031 1504.03 61.2031C1511.24 60.0031 1515.7 60.7031 1517.04 61.2031C1524.21 58.0365 1543.15 52.9031 1561.56 57.7031C1579.97 62.5031 1594.58 56.7031 1599.58 53.2031C1617.09 53.2031 1636.6 40.2031 1642.1 38.2031C1647.61 36.2031 1660.61 37.2031 1660.61 38.2031C1660.61 39.2031 1666.12 48.7031 1667.12 48.7031C1667.92 48.7031 1669.12 47.3698 1669.62 46.7031C1677.62 49.9031 1699.97 53.7031 1710.14 55.2031L1759.66 55.7031C1769.27 51.7031 1786.35 57.3698 1793.68 60.7031H1800.19V59.2031C1787.68 42.7031 1836.7 54.7031 1839.21 54.7031C1841.21 54.7031 1846.04 50.3698 1848.21 48.2031L1846.21 47.2031C1845.21 46.7031 1843.71 38.7031 1842.71 40.2031C1841.91 41.4031 1838.37 41.7031 1836.7 41.7031C1793.68 32.7031 1798.69 40.2031 1798.69 42.7031C1798.69 45.2031 1800.19 48.7031 1797.68 49.2031C1795.68 49.6031 1778.51 44.7031 1770.17 42.2031C1767.17 43.2031 1760.27 44.7031 1756.66 42.7031C1752.16 40.2031 1711.14 44.7031 1709.14 42.7031C1707.14 40.7031 1682.62 38.2031 1676.62 36.7031C1671.82 35.5031 1669.62 33.8698 1669.12 33.2031C1668.95 33.8698 1668.32 35.3031 1667.12 35.7031C1665.62 36.2031 1663.11 28.7031 1660.61 24.2031C1658.61 20.6031 1647.11 22.7031 1641.6 24.2031C1633.6 32.2031 1601.08 40.7031 1598.58 41.7031C1596.08 42.7031 1591.08 49.2031 1582.07 47.2031C1573.07 45.2031 1543.55 44.7031 1540.55 44.2031C1537.55 43.7031 1521.54 48.7031 1515.54 50.2031C1509.53 51.7031 1514.04 50.7031 1506.53 48.7031C1499.03 46.7031 1494.03 52.7031 1488.52 53.2031C1484.12 53.6031 1478.35 51.3698 1476.02 50.2031C1461.01 62.2031 1456.01 60.7031 1445 65.7031C1434 70.7031 1418.49 49.2031 1418.49 49.7031C1418.49 50.2031 1412.98 51.7031 1409.98 51.2031C1406.98 50.7031 1398.98 43.2031 1397.98 42.7031C1396.98 42.2031 1396.98 42.7031 1390.47 39.2031C1385.27 36.4031 1380.63 38.0365 1378.97 39.2031C1375.3 42.3698 1366.06 49.2031 1358.46 51.2031C1348.95 53.7031 1342.45 45.2031 1339.45 42.7031C1336.44 40.2031 1320.94 40.7031 1319.94 40.7031C1308.33 37.1031 1297.09 39.2031 1292.92 40.7031C1279.71 44.7031 1250.73 48.7031 1237.89 50.2031C1235.39 45.2031 1206.88 53.2031 1195.87 50.2031C1187.07 47.8031 1183.86 46.5365 1183.36 46.2031C1168.36 49.7031 1152.85 47.7031 1147.85 46.2031C1142.84 44.7031 1132.34 28.7031 1127.34 29.7031C1123.33 30.5031 1108.66 23.3701 1101.82 19.7037C1093.82 6.70419 1086.81 14.2031 1085.81 13.7031C1084.81 13.2031 1081.81 17.2031 1080.81 15.2031C1079.81 13.2031 1074.81 10.2031 1070.81 11.2031C1066.8 12.2031 1062.3 12.2037 1061.3 12.2037C1053.8 7.20366 1028.78 9.20366 1022.78 9.20366H1013.28C1009.67 9.20366 1007.11 13.8703 1006.27 16.2037C1003.47 11.0037 994.766 16.3703 990.764 19.7037C985.562 16.5037 976.59 18.3703 972.755 19.7037C968.586 20.7037 958.448 22.1037 951.244 19.7037C942.239 16.7037 931.233 21.2037 927.732 22.7037C924.23 24.2037 909.222 27.2037 902.218 26.7037C895.215 26.2037 897.216 22.2037 894.714 23.7037C892.213 25.2037 852.693 25.2037 846.189 23.7037C840.986 22.5037 833.016 24.2037 829.68 25.2037C810.471 31.6037 793.662 26.8703 787.659 23.7037C786.058 28.1037 782.323 30.2037 780.655 30.7037C775.652 33.7037 765.647 21.2037 762.145 17.2037C758.643 13.2037 756.642 14.7037 755.642 15.7037C754.841 16.5037 752.307 16.037 751.14 15.7037C741.635 7.70366 717.122 19.7037 705.616 25.7037C694.11 31.7037 683.104 19.7037 681.603 19.7037C680.103 19.7037 669.597 24.2037 666.095 23.7037C663.294 23.3037 647.252 20.8703 639.581 19.7037C637.914 21.037 631.377 22.3037 618.571 16.7037C605.764 11.1037 599.561 14.0364 598.06 16.2027C591.657 9.80196 585.053 9.20306 582.552 9.70371C577.549 7.70371 565.043 16.2027 563.542 16.2027C551.536 13.2027 522.02 30.2027 521.52 31.2027Z" fill="white"/>
<path d="M1848.21 35.2031C1849.21 36.7031 1847.21 36.7031 1846.71 37.2031H1864.22C1868.39 38.7031 1877.63 40.7031 1881.23 36.7031C1884.83 32.7031 1888.4 35.3698 1889.73 37.2031C1890.93 36.0031 1910.58 34.7031 1920.25 34.2031V20.2031C1917.75 18.7031 1889.73 24.2031 1888.73 22.7031C1887.93 21.5031 1886.4 20.8698 1885.73 20.7031C1884.06 21.8698 1879.93 24.4031 1876.73 25.2031C1872.72 26.2031 1867.72 25.2031 1865.22 23.7031C1862.72 22.2031 1844.71 23.7031 1843.21 25.2031C1841.71 26.7031 1844.71 28.7031 1846.71 33.2031C1848.71 37.7031 1847.21 33.7031 1848.21 35.2031Z" fill="white"/>
</g>
</g>
</svg>
