<svg width="1021" height="188" viewBox="0 0 1021 188" fill="none" xmlns="http://www.w3.org/2000/svg">
<g id="ripped-paper-narrow-down">
<path id="mask" d="M1020.25 0.518311V113.721C1017.75 113.055 1010.24 115.421 1000.24 130.221C983.23 130.221 970.224 121.821 960.219 130.221C957.718 130.221 939.209 100.721 909.194 130.221C906.192 132.055 896.887 134.621 883.681 130.221C878.845 130.055 868.774 130.522 867.173 133.721C863.921 140.221 842.662 131.721 824.153 121.221C819.15 115.555 806.744 105.321 797.139 109.721C793.137 114.055 784.132 122.421 780.13 121.221C775.127 119.721 745.615 106.222 738.611 107.221C731.607 108.221 718.1 99.7214 708.095 107.221C707.095 107.221 708.094 104.222 698.09 105.221C688.086 106.221 683.583 100.222 679.582 106.221C675.579 112.222 635.561 131.721 627.056 131.221C620.253 130.821 615.55 122.055 614.049 117.721C611.048 118.388 605.045 120.021 605.045 121.221C605.045 122.72 601.543 111.722 598.042 113.221C594.54 114.721 586.536 118.721 585.536 121.221C584.735 123.221 582.201 123.388 581.034 123.221C579.366 125.555 575.631 129.721 574.03 127.721C572.429 125.721 569.867 122.759 569.419 121.656C568.464 122.793 564.894 126.617 561.024 138.221C558.856 137.388 554.521 135.421 554.52 134.221C554.52 132.721 548.017 146.721 545.015 146.721C542.614 146.721 536.678 141.721 534.01 139.221L524.505 148.721C523.705 149.521 519.169 149.055 517.001 148.721C513.666 150.555 502.994 152.721 486.987 146.721L470.479 162.721L460.974 163.721C460.474 169.055 458.873 179.621 456.472 179.221C453.471 178.721 445.968 174.722 445.967 173.221C445.967 171.721 443.966 177.721 426.458 168.221C425.124 167.555 421.855 167.321 419.454 171.721L415.953 173.221C413.285 175.055 407.748 179.021 406.948 180.221C405.947 181.721 402.946 180.221 398.944 170.721C398.777 173.388 398.243 178.621 397.443 178.221C396.442 177.72 392.44 166.721 391.44 164.721C390.439 162.721 386.938 158.721 381.435 164.721C377.033 169.521 374.265 171.388 373.431 171.721L369.429 173.221C369.429 173.722 368.829 174.821 366.428 175.221C363.427 175.721 356.424 175.721 354.422 173.221C352.421 170.721 348.419 165.721 342.917 168.221C338.514 170.221 336.414 172.388 335.914 173.221C332.579 171.221 324.508 168.421 318.905 173.221C313.302 178.021 309.9 183.555 308.9 185.721C306.732 186.221 301.997 186.921 300.396 185.721C298.395 184.221 292.392 182.721 291.391 183.721C290.59 184.522 287.389 186.722 285.888 187.721C279.385 173.055 263.978 145.022 254.374 150.221C252.873 151.388 249.371 153.521 247.37 152.721C244.868 151.721 244.868 164.721 241.867 164.721C238.865 164.72 225.86 139.723 225.859 137.721C225.859 136.121 224.859 141.721 224.359 144.721C218.689 134.721 205.149 113.921 196.344 110.721C195.344 106.722 195.344 91.7224 192.843 89.7214C190.342 87.7214 177.835 81.7214 170.332 82.7214C169.33 82.7185 164.829 70.7217 161.328 70.7214C157.826 70.7214 155.825 74.7214 154.825 76.2214C154.024 77.4214 149.155 78.3881 146.821 78.7214L141.318 82.7214L136.315 67.2214C130.645 72.388 115.805 78.3209 101.798 60.7214C100.131 60.5548 96.2954 60.8214 94.2944 63.2214L89.2925 54.2214C86.9581 56.388 81.6889 60.7211 79.2876 60.7214C76.2861 60.7214 50.6395 46.7884 35.7661 54.2214C31.7642 56.2214 20.2583 27.7214 0.248535 69.2214V0.518311H1020.25ZM992.616 103.001C995.024 103.559 997.301 103.539 998.875 102.375L992.616 103.001Z" fill="#EEEEEE"/>
<path id="outer-edge" d="M0.248535 69.2229V37.7229C5.91798 26.2229 20.6585 7.72288 34.2652 25.7229C35.2657 25.5562 39.7679 25.6229 49.7728 27.2229C62.2789 29.2229 59.2775 29.2229 68.7821 30.2229C78.2868 31.2229 85.7905 28.7229 87.7915 27.2229C89.6257 29.7229 93.4942 34.8229 94.2946 35.2229C95.2951 35.7229 96.7959 27.7229 101.798 32.7229C106.801 37.7229 120.808 47.7229 131.813 42.7229C133.014 42.7229 135.982 39.3896 137.316 37.7229C137.149 42.0562 137.516 50.9229 140.317 51.7229C143.819 52.7229 139.317 51.7229 145.82 49.7229C152.323 47.7229 150.822 50.7229 155.825 46.7229C160.827 42.7229 161.327 38.7229 165.329 44.2229C169.331 49.7229 163.829 53.7229 170.832 54.2229C177.836 54.7229 194.344 52.2229 195.344 60.7229C196.345 69.2229 195.344 74.2229 195.344 77.7229C195.344 81.2229 211.852 88.2229 224.358 112.723C224.692 111.556 225.459 108.723 225.859 106.723C226.359 104.223 234.363 125.223 238.866 129.223C243.368 133.223 243.868 130.223 245.869 125.223C247.87 120.223 248.87 119.223 251.872 119.723C254.873 120.223 257.375 120.723 259.376 119.723C261.377 118.723 260.376 108.223 268.88 125.223C277.384 142.223 281.887 151.223 283.888 151.723C285.889 152.223 286.389 153.723 291.391 151.723C296.394 149.723 294.893 150.223 302.397 150.223C309.9 150.223 310.901 145.723 319.905 139.223C328.91 132.723 329.41 139.223 334.913 139.223C340.415 139.223 340.916 133.723 347.919 135.723C354.922 137.723 358.424 142.223 362.426 140.723C366.428 139.223 362.926 144.223 370.43 140.723C377.934 137.223 380.435 129.223 384.437 129.223C388.439 129.223 393.942 132.723 394.942 139.223C395.742 144.423 396.943 144.39 397.443 143.723L398.656 138.875C398.737 138.456 398.837 138.066 398.944 137.723L398.656 138.875C398.108 141.706 398.414 145.874 402.946 146.223C409.449 146.723 408.449 143.723 411.95 142.223C414.752 141.023 417.12 139.723 417.953 139.223C418.954 138.056 421.155 135.723 421.955 135.723C422.956 135.723 425.457 133.223 433.461 137.723C441.465 142.223 441.465 140.723 443.966 140.723C446.467 140.723 448.468 143.723 449.969 143.723C451.47 143.723 453.471 148.223 456.472 143.723C459.474 139.223 460.974 139.223 460.974 134.223C460.974 130.223 462.308 129.223 462.975 129.223C462.809 131.056 464.576 133.223 472.98 127.223C481.384 121.223 485.153 116.39 485.987 114.723C493.824 116.556 510.399 119.823 514 118.223C517.602 116.623 518.503 114.556 518.503 113.723C519.67 115.056 522.304 117.323 523.505 115.723C525.006 113.723 527.007 110.723 531.009 109.723C535.011 108.723 532.509 115.723 539.013 114.723C545.516 113.723 546.016 111.723 550.018 107.723C554.02 103.723 553.019 115.223 558.522 107.723C564.025 100.223 567.026 88.7229 569.528 91.2229C572.029 93.7229 573.53 97.7229 577.531 95.7229C580.733 94.1229 583.534 92.0562 584.535 91.2229C588.037 88.0562 595.64 82.2229 598.042 84.2229C600.443 86.2229 603.711 89.7229 605.045 91.2229C608.046 88.3896 614.55 84.9229 616.551 93.7229C620.719 101.723 639.162 109.923 679.582 78.7229C681.082 78.7229 692.088 66.2229 706.095 78.7229C709.93 75.0562 720.702 69.4229 733.108 76.2229C739.778 76.8896 753.818 78.8229 756.619 81.2229C760.121 84.2229 764.623 89.2229 771.627 89.2229C778.63 89.2229 786.134 92.2229 791.136 86.7229C796.139 81.2229 794.138 78.7229 799.64 78.7229C805.143 78.7229 816.148 82.2229 821.651 86.7229C827.154 91.2229 819.65 90.2229 831.656 93.7229C843.662 97.2229 853.167 106.723 860.67 104.223C868.174 101.723 865.172 100.223 873.677 100.723C882.181 101.223 899.189 104.223 906.193 100.723C913.196 97.2229 934.707 75.2229 957.718 98.7229C964.555 96.8896 979.228 94.3229 983.23 98.7229C987.733 101.723 997.437 106.323 1000.24 100.723C1003.74 93.7229 1014.75 80.7229 1020.25 83.7229V113.723C1017.75 113.056 1010.24 115.423 1000.24 130.223C983.23 130.223 970.224 121.823 960.219 130.223C957.718 130.223 939.209 100.723 909.194 130.223C906.193 132.056 896.888 134.623 883.682 130.223C878.846 130.056 868.774 130.523 867.173 133.723C863.922 140.223 842.661 131.723 824.152 121.223C819.15 115.556 806.744 105.323 797.139 109.723C793.137 114.056 784.133 122.423 780.131 121.223C775.128 119.723 745.614 106.223 738.61 107.223C731.607 108.223 718.1 99.7229 708.096 107.223C707.095 107.223 708.096 104.223 698.091 105.223C688.086 106.223 683.583 100.223 679.582 106.223C675.58 112.223 635.56 131.723 627.056 131.223C620.252 130.823 615.55 122.056 614.049 117.723C611.048 118.39 605.045 120.023 605.045 121.223C605.045 122.723 601.543 111.723 598.042 113.223C594.54 114.723 586.536 118.723 585.535 121.223C584.735 123.223 582.2 123.39 581.033 123.223C579.366 125.556 575.631 129.723 574.03 127.723C572.429 125.722 569.866 122.761 569.419 121.658C568.464 122.795 564.893 126.618 561.023 138.223C558.856 137.39 554.52 135.423 554.52 134.223C554.52 132.723 548.017 146.723 545.016 146.723C542.614 146.723 536.678 141.723 534.01 139.223L524.505 148.723C523.705 149.523 519.17 149.056 517.002 148.723C513.667 150.556 502.995 152.723 486.987 146.723L470.479 162.723L460.974 163.723C460.474 169.056 458.873 179.623 456.472 179.223C453.471 178.723 445.967 174.723 445.967 173.223C445.967 171.723 443.966 177.723 426.457 168.223C425.123 167.556 421.855 167.323 419.454 171.723L415.952 173.223C413.284 175.056 407.748 179.023 406.948 180.223C405.947 181.723 402.946 180.223 398.944 170.723C398.777 173.39 398.244 178.623 397.443 178.223C396.443 177.723 392.441 166.723 391.44 164.723C390.44 162.723 386.938 158.723 381.435 164.723C377.033 169.523 374.265 171.39 373.431 171.723L369.43 173.223C369.43 173.723 368.829 174.823 366.428 175.223C363.427 175.723 356.423 175.723 354.422 173.223C352.421 170.723 348.419 165.723 342.917 168.223C338.514 170.223 336.413 172.39 335.913 173.223C332.578 171.223 324.507 168.423 318.905 173.223C313.302 178.023 309.9 183.556 308.9 185.723C306.732 186.223 301.996 186.923 300.396 185.723C298.395 184.223 292.392 182.723 291.391 183.723C290.591 184.523 287.389 186.723 285.889 187.723C279.385 173.056 263.978 145.023 254.373 150.223C252.872 151.39 249.371 153.523 247.37 152.723C244.868 151.723 244.868 164.723 241.867 164.723C238.866 164.723 225.859 139.723 225.859 137.723C225.859 136.123 224.859 141.723 224.358 144.723C218.689 134.723 205.149 113.923 196.345 110.723C195.344 106.723 195.344 91.7229 192.843 89.7229C190.342 87.7229 177.836 81.7229 170.332 82.7229C169.331 82.7229 164.829 70.7229 161.327 70.7229C157.826 70.7229 155.825 74.7229 154.824 76.2229C154.024 77.4229 149.155 78.3896 146.82 78.7229L141.318 82.7229L136.315 67.2229C130.646 72.3896 115.805 78.3229 101.798 60.7229C100.131 60.5562 96.2956 60.8229 94.2946 63.2229L89.2922 54.2229C86.9577 56.3896 81.6885 60.7229 79.2873 60.7229C76.2858 60.7229 50.6393 46.7899 35.7659 54.2229C31.764 56.2229 20.2583 27.7229 0.248535 69.2229Z" fill="white"/>
</g>
</svg>
