<svg width="1021" height="154" viewBox="0 0 1021 154" fill="none" xmlns="http://www.w3.org/2000/svg">
<g id="ripped-paper-narrow-up">
<path id="mask" d="M1020.25 153.76H0.248535V118.16L65.2485 126.66L129.499 110.66L258.749 103.16L335.249 97.1597L385.249 67.9097H510.249L577.249 109.16L628.749 100.66H690.249L750.749 119.66L848.749 112.16L884.249 108.16L905.249 68.6597L1020.25 17.6597V153.76Z" fill="#EEEEEE"/>
<path id="outer-edge" d="M0.248535 135.141V104.641H9.24854C42.2485 134.636 60.7485 102.146 64.2485 103.146C67.7485 104.146 135.749 102.146 137.249 102.146C138.449 102.146 139.415 97.8122 139.749 95.6456C146.549 84.4456 164.915 88.9758 173.249 92.6409L192.249 84.1456C207.049 75.3456 221.082 86.1425 226.249 92.6409C254.749 88.6413 277.749 90.6456 289.749 90.1456C301.749 89.6456 327.749 77.1456 328.249 77.1456C328.749 77.1456 326.749 81.6456 332.749 84.1456C338.749 86.6456 339.749 83.1456 345.249 77.1456C350.749 71.1456 353.749 73.6456 356.249 76.6456C358.749 79.6456 357.249 76.1456 357.749 73.6456C358.249 71.1456 359.749 65.1456 362.249 60.6456C364.749 56.1456 362.749 62.6456 365.749 66.1456C368.749 69.6456 367.749 59.6456 373.249 53.1456C378.749 46.6456 378.749 44.6456 393.249 51.1456C407.749 57.6456 414.249 55.1456 415.749 55.1456C417.249 55.1456 419.249 56.6456 423.749 58.6456C428.249 60.6456 430.249 52.1456 432.249 49.6456C433.849 47.6456 439.249 47.8123 441.749 48.1456C460.249 37.6456 474.749 52.1456 489.749 49.6456C504.749 47.1456 507.249 58.1456 510.749 59.6456C514.249 61.1456 517.249 60.1456 522.749 62.6456C528.249 65.1456 527.749 73.1456 530.249 75.1456C532.749 77.1456 535.249 68.6456 539.249 73.1456C543.249 77.6456 563.249 84.1456 565.249 86.6456L565.376 86.8046C567.658 89.6655 577.905 102.509 585.749 95.6456C593.749 88.6456 614.249 88.1456 618.249 89.1456C622.249 90.1456 634.249 87.1456 642.249 83.1456C650.249 79.1456 654.249 88.6456 660.749 90.6456C665.949 92.2456 678.582 90.3122 684.249 89.1456C687.249 76.1456 698.749 91.1456 701.749 92.1456C704.149 92.9456 705.749 92.4789 706.249 92.1456C711.749 78.1456 722.249 100.646 725.249 103.646C728.249 106.646 730.249 100.646 731.249 101.146C732.249 101.646 733.249 110.146 738.749 113.646C744.249 117.146 747.249 103.146 749.749 100.646C752.249 98.1456 750.749 101.146 754.249 104.646C757.049 107.446 782.415 104.812 794.749 103.146C820.749 91.6456 817.749 94.1456 829.249 90.6456C840.749 87.1456 843.249 98.1456 847.749 97.1456C852.249 96.1456 873.749 98.1456 883.749 98.1456C891.749 98.1456 898.415 69.1456 900.749 54.6456C928.249 60.6456 923.249 30.1456 941.749 33.1456C946.19 33.8659 945.249 31.1456 947.749 28.6456C950.249 26.1456 950.249 28.6456 953.749 27.6456C957.249 26.6456 960.249 16.6456 962.249 15.6456C964.249 14.6456 966.749 24.1456 972.249 23.1456C977.749 22.1456 980.249 15.1456 982.749 12.1456C985.249 9.14558 988.749 12.6456 989.749 11.1456C990.749 9.64558 991.749 6.14401 996.249 1.64401C1000.75 -2.85599 1007.25 9.64253 1010.75 8.14253C1013.55 6.94253 1018.25 7.64253 1020.25 8.14253V42.1425C1019.75 41.8092 1018.55 41.0425 1017.75 40.6425C1016.75 40.1425 1014.25 41.6425 1009.75 42.1425C1005.25 42.6425 1000.25 37.6406 996.249 35.1406C992.249 32.6406 991.749 42.1406 990.249 44.1406C988.749 46.1406 989.249 44.6406 983.749 45.1406C978.249 45.6406 968.249 57.6406 967.249 57.1406C966.249 56.6406 965.249 53.1417 963.249 50.6417C961.249 48.1417 955.249 57.1417 948.749 64.1417C943.549 69.7417 934.249 68.8083 930.249 67.6417C923.249 91.1417 904.749 85.1417 902.249 86.6417C899.749 88.1417 892.749 113.142 890.749 121.642C888.749 130.142 884.249 126.642 877.749 127.642C871.249 128.642 853.749 128.642 846.749 127.642C839.749 126.642 837.749 122.642 826.249 119.142C814.749 115.642 796.749 133.642 791.749 134.642C786.749 135.642 752.749 133.642 750.249 129.642C747.749 125.642 737.249 143.642 735.749 143.642C734.249 143.642 730.749 131.142 730.249 130.642C729.749 130.142 726.749 133.142 724.249 133.642C721.749 134.142 712.249 117.142 711.249 117.142C710.249 117.142 706.249 124.642 703.249 123.142C700.249 121.642 692.249 107.642 687.249 113.642C682.249 119.642 671.249 120.142 665.749 120.142C660.249 120.142 659.249 105.642 649.749 115.642C640.249 125.642 612.749 111.642 595.749 123.142C582.149 132.342 568.415 121.308 563.249 114.642C557.749 113.642 545.949 110.542 542.749 106.142C539.549 101.742 532.415 103.642 529.249 105.142C528.749 102.642 523.249 90.1417 518.249 92.1417C514.249 93.7417 509.915 90.4736 508.249 88.6396C501.449 79.4379 488.082 79.1389 482.249 80.1396C458.249 71.7388 445.249 76.6392 441.749 80.1396C440.249 78.6396 436.749 76.4396 434.749 79.6396C432.249 83.6396 420.749 91.1396 419.249 88.6396C417.749 86.1396 416.249 85.6396 409.749 87.6405C405.749 87.6405 385.249 77.6405 377.749 79.1405C371.749 80.3405 367.249 91.3072 365.749 96.6405C365.915 95.8073 365.149 93.8409 360.749 92.6409C356.094 91.3716 356.095 105.14 356.205 108.193C356.233 108.336 356.249 108.485 356.249 108.641C356.249 108.949 356.225 108.748 356.205 108.193C355.866 106.491 353.632 105.641 352.249 105.641C348.749 107.641 341.049 112.141 338.249 114.141C335.449 116.141 329.415 111.308 326.749 108.641C319.749 112.141 289.249 121.141 285.249 119.141C281.249 117.141 269.749 119.141 262.749 119.141C257.149 119.141 236.082 121.474 226.249 122.641C208.249 98.1409 173.249 122.641 171.749 122.641C170.249 122.641 170.249 116.641 153.749 119.141C137.249 121.641 140.249 128.641 140.249 130.141C140.249 131.341 136.582 130.641 134.749 130.141C93.7485 138.641 69.7485 129.141 65.7485 132.641C62.5485 135.441 52.0819 142.474 47.2485 145.641C31.2485 156.141 9.74854 135.141 7.74854 135.141H0.248535Z" fill="white"/>
</g>
</svg>
